<svg id="visual" viewBox="0 0 900 200" width="900" height="200" xmlns="http://www.w3.org/2000/svg" xmlns:xlink="http://www.w3.org/1999/xlink" version="1.1"><path d="M0 120L18.8 115.8C37.7 111.7 75.3 103.3 112.8 104C150.3 104.7 187.7 114.3 225.2 117.7C262.7 121 300.3 118 337.8 117.5C375.3 117 412.7 119 450.2 113.7C487.7 108.3 525.3 95.7 562.8 97.3C600.3 99 637.7 115 675.2 118.8C712.7 122.7 750.3 114.3 787.8 116.7C825.3 119 862.7 132 881.3 138.5L900 145L900 0L881.3 0C862.7 0 825.3 0 787.8 0C750.3 0 712.7 0 675.2 0C637.7 0 600.3 0 562.8 0C525.3 0 487.7 0 450.2 0C412.7 0 375.3 0 337.8 0C300.3 0 262.7 0 225.2 0C187.7 0 150.3 0 112.8 0C75.3 0 37.7 0 18.8 0L0 0Z" fill="#a2a2a2"></path><path d="M0 54L18.8 61.2C37.7 68.3 75.3 82.7 112.8 95C150.3 107.3 187.7 117.7 225.2 115.3C262.7 113 300.3 98 337.8 88.8C375.3 79.7 412.7 76.3 450.2 71.3C487.7 66.3 525.3 59.7 562.8 68C600.3 76.3 637.7 99.7 675.2 108.7C712.7 117.7 750.3 112.3 787.8 105.3C825.3 98.3 862.7 89.7 881.3 85.3L900 81L900 0L881.3 0C862.7 0 825.3 0 787.8 0C750.3 0 712.7 0 675.2 0C637.7 0 600.3 0 562.8 0C525.3 0 487.7 0 450.2 0C412.7 0 375.3 0 337.8 0C300.3 0 262.7 0 225.2 0C187.7 0 150.3 0 112.8 0C75.3 0 37.7 0 18.8 0L0 0Z" fill="#6f757e"></path><path d="M0 64L18.8 61.3C37.7 58.7 75.3 53.3 112.8 54.8C150.3 56.3 187.7 64.7 225.2 64.7C262.7 64.7 300.3 56.3 337.8 53.5C375.3 50.7 412.7 53.3 450.2 56.7C487.7 60 525.3 64 562.8 70.7C600.3 77.3 637.7 86.7 675.2 87.3C712.7 88 750.3 80 787.8 71.3C825.3 62.7 862.7 53.3 881.3 48.7L900 44L900 0L881.3 0C862.7 0 825.3 0 787.8 0C750.3 0 712.7 0 675.2 0C637.7 0 600.3 0 562.8 0C525.3 0 487.7 0 450.2 0C412.7 0 375.3 0 337.8 0C300.3 0 262.7 0 225.2 0C187.7 0 150.3 0 112.8 0C75.3 0 37.7 0 18.8 0L0 0Z" fill="#3e4a5c"></path><path d="M0 39L18.8 42.7C37.7 46.3 75.3 53.7 112.8 56.8C150.3 60 187.7 59 225.2 54C262.7 49 300.3 40 337.8 38.3C375.3 36.7 412.7 42.3 450.2 47.5C487.7 52.7 525.3 57.3 562.8 54.8C600.3 52.3 637.7 42.7 675.2 35C712.7 27.3 750.3 21.7 787.8 24.7C825.3 27.7 862.7 39.3 881.3 45.2L900 51L900 0L881.3 0C862.7 0 825.3 0 787.8 0C750.3 0 712.7 0 675.2 0C637.7 0 600.3 0 562.8 0C525.3 0 487.7 0 450.2 0C412.7 0 375.3 0 337.8 0C300.3 0 262.7 0 225.2 0C187.7 0 150.3 0 112.8 0C75.3 0 37.7 0 18.8 0L0 0Z" fill="#08243b"></path></svg>