<svg id="visual" viewBox="0 0 900 600" width="900" height="600" xmlns="http://www.w3.org/2000/svg" xmlns:xlink="http://www.w3.org/1999/xlink" version="1.1"><path d="M0 122L21.5 125C43 128 86 134 128.8 142C171.7 150 214.3 160 257.2 162.8C300 165.7 343 161.3 385.8 154.8C428.7 148.3 471.3 139.7 514.2 144.8C557 150 600 169 642.8 174.3C685.7 179.7 728.3 171.3 771.2 172.2C814 173 857 183 878.5 188L900 193L900 0L878.5 0C857 0 814 0 771.2 0C728.3 0 685.7 0 642.8 0C600 0 557 0 514.2 0C471.3 0 428.7 0 385.8 0C343 0 300 0 257.2 0C214.3 0 171.7 0 128.8 0C86 0 43 0 21.5 0L0 0Z" fill="#d4d4d6"></path><path d="M0 102L21.5 101C43 100 86 98 128.8 98.7C171.7 99.3 214.3 102.7 257.2 107.8C300 113 343 120 385.8 122C428.7 124 471.3 121 514.2 125.5C557 130 600 142 642.8 146C685.7 150 728.3 146 771.2 141.3C814 136.7 857 131.3 878.5 128.7L900 126L900 0L878.5 0C857 0 814 0 771.2 0C728.3 0 685.7 0 642.8 0C600 0 557 0 514.2 0C471.3 0 428.7 0 385.8 0C343 0 300 0 257.2 0C214.3 0 171.7 0 128.8 0C86 0 43 0 21.5 0L0 0Z" fill="#a1a3ad"></path><path d="M0 114L21.5 109.8C43 105.7 86 97.3 128.8 93.3C171.7 89.3 214.3 89.7 257.2 94C300 98.3 343 106.7 385.8 103.7C428.7 100.7 471.3 86.3 514.2 85.2C557 84 600 96 642.8 100.5C685.7 105 728.3 102 771.2 99.2C814 96.3 857 93.7 878.5 92.3L900 91L900 0L878.5 0C857 0 814 0 771.2 0C728.3 0 685.7 0 642.8 0C600 0 557 0 514.2 0C471.3 0 428.7 0 385.8 0C343 0 300 0 257.2 0C214.3 0 171.7 0 128.8 0C86 0 43 0 21.5 0L0 0Z" fill="#6f7585"></path><path d="M0 66L21.5 67.8C43 69.7 86 73.3 128.8 70.8C171.7 68.3 214.3 59.7 257.2 56.2C300 52.7 343 54.3 385.8 57.5C428.7 60.7 471.3 65.3 514.2 64.7C557 64 600 58 642.8 56.3C685.7 54.7 728.3 57.3 771.2 57.5C814 57.7 857 55.3 878.5 54.2L900 53L900 0L878.5 0C857 0 814 0 771.2 0C728.3 0 685.7 0 642.8 0C600 0 557 0 514.2 0C471.3 0 428.7 0 385.8 0C343 0 300 0 257.2 0C214.3 0 171.7 0 128.8 0C86 0 43 0 21.5 0L0 0Z" fill="#3e4a5f"></path><path d="M0 40L21.5 38.7C43 37.3 86 34.7 128.8 31.8C171.7 29 214.3 26 257.2 27C300 28 343 33 385.8 38.2C428.7 43.3 471.3 48.7 514.2 48.5C557 48.3 600 42.7 642.8 40.5C685.7 38.3 728.3 39.7 771.2 43.2C814 46.7 857 52.3 878.5 55.2L900 58L900 0L878.5 0C857 0 814 0 771.2 0C728.3 0 685.7 0 642.8 0C600 0 557 0 514.2 0C471.3 0 428.7 0 385.8 0C343 0 300 0 257.2 0C214.3 0 171.7 0 128.8 0C86 0 43 0 21.5 0L0 0Z" fill="#08243b"></path></svg>