<svg id="visual" viewBox="0 0 900 600" width="900" height="600" xmlns="http://www.w3.org/2000/svg" xmlns:xlink="http://www.w3.org/1999/xlink" version="1.1"><g stroke-width="1" stroke-linejoin="bevel"><path d="M412 309.9L376 285.9L326 312.1Z" fill="#161515" stroke="#161515"></path><path d="M326 312.1L450 373.6L412 309.9Z" fill="#161616" stroke="#161616"></path><path d="M376 285.9L286 247.1L326 312.1Z" fill="#171717" stroke="#171717"></path><path d="M237 362.9L356 464.6L326 312.1Z" fill="#161616" stroke="#161616"></path><path d="M326 312.1L356 464.6L450 373.6Z" fill="#161616" stroke="#161616"></path><path d="M286 247.1L237 362.9L326 312.1Z" fill="#151414" stroke="#151414"></path><path d="M507 230.4L456 229.1L412 309.9Z" fill="#151414" stroke="#151414"></path><path d="M412 309.9L456 229.1L376 285.9Z" fill="#171717" stroke="#171717"></path><path d="M376 285.9L368 143.4L286 247.1Z" fill="#161616" stroke="#161616"></path><path d="M507 230.4L472 220.4L456 229.1Z" fill="#161616" stroke="#161616"></path><path d="M456 229.1L368 143.4L376 285.9Z" fill="#151414" stroke="#151414"></path><path d="M563 466.6L521 388.9L468 562.3Z" fill="#151414" stroke="#151414"></path><path d="M450 373.6L507 230.4L412 309.9Z" fill="#151414" stroke="#151414"></path><path d="M521 388.9L507 230.4L450 373.6Z" fill="#161616" stroke="#161616"></path><path d="M413 88.7L368 143.4L472 220.4Z" fill="#171717" stroke="#171717"></path><path d="M472 220.4L368 143.4L456 229.1Z" fill="#161616" stroke="#161616"></path><path d="M237 362.9L229 464.6L356 464.6Z" fill="#171717" stroke="#171717"></path><path d="M181 132.4L188 271.1L286 247.1Z" fill="#161616" stroke="#161616"></path><path d="M286 247.1L188 271.1L237 362.9Z" fill="#161616" stroke="#161616"></path><path d="M237 362.9L153 420.6L229 464.6Z" fill="#171717" stroke="#171717"></path><path d="M368 143.4L323 130.4L286 247.1Z" fill="#161616" stroke="#161616"></path><path d="M229 464.6L253 519.3L356 464.6Z" fill="#161515" stroke="#161515"></path><path d="M468 562.3L521 388.9L450 373.6Z" fill="#161515" stroke="#161515"></path><path d="M594 301.9L562 215.1L507 230.4Z" fill="#151414" stroke="#151414"></path><path d="M507 230.4L517 130.7L472 220.4Z" fill="#161616" stroke="#161616"></path><path d="M521 388.9L594 301.9L507 230.4Z" fill="#161616" stroke="#161616"></path><path d="M131 387.9L153 420.6L237 362.9Z" fill="#161515" stroke="#161515"></path><path d="M229 464.6L164 480.3L253 519.3Z" fill="#161616" stroke="#161616"></path><path d="M468 562.3L450 373.6L356 464.6Z" fill="#161616" stroke="#161616"></path><path d="M521 388.9L625 370.6L594 301.9Z" fill="#151414" stroke="#151414"></path><path d="M253 519.3L372 571.3L356 464.6Z" fill="#151414" stroke="#151414"></path><path d="M188 271.1L131 387.9L237 362.9Z" fill="#151515" stroke="#151515"></path><path d="M372 571.3L468 562.3L356 464.6Z" fill="#151414" stroke="#151414"></path><path d="M517 130.7L413 88.7L472 220.4Z" fill="#161616" stroke="#161616"></path><path d="M368 143.4L413 88.7L323 130.4Z" fill="#151414" stroke="#151414"></path><path d="M562 215.1L517 130.7L507 230.4Z" fill="#161616" stroke="#161616"></path><path d="M153 420.6L164 480.3L229 464.6Z" fill="#161616" stroke="#161616"></path><path d="M104 503.3L164 480.3L153 420.6Z" fill="#171717" stroke="#171717"></path><path d="M563 466.6L625 370.6L521 388.9Z" fill="#171717" stroke="#171717"></path><path d="M594 301.9L689 208.1L562 215.1Z" fill="#151414" stroke="#151414"></path><path d="M280 600L371 600L372 571.3Z" fill="#171717" stroke="#171717"></path><path d="M372 571.3L459 600L468 562.3Z" fill="#151515" stroke="#151515"></path><path d="M280 600L372 571.3L253 519.3Z" fill="#171717" stroke="#171717"></path><path d="M240 68.7L181 132.4L323 130.4Z" fill="#151515" stroke="#151515"></path><path d="M323 130.4L181 132.4L286 247.1Z" fill="#161616" stroke="#161616"></path><path d="M54 264.1L96 387.6L131 387.9Z" fill="#171717" stroke="#171717"></path><path d="M54 264.1L131 387.9L188 271.1Z" fill="#161616" stroke="#161616"></path><path d="M131 387.9L86 394.9L153 420.6Z" fill="#161616" stroke="#161616"></path><path d="M468 562.3L594 526.3L563 466.6Z" fill="#171717" stroke="#171717"></path><path d="M371 600L459 600L372 571.3Z" fill="#171717" stroke="#171717"></path><path d="M210 600L280 600L253 519.3Z" fill="#161616" stroke="#161616"></path><path d="M0 347.9L86 394.9L96 387.6Z" fill="#171717" stroke="#171717"></path><path d="M96 387.6L86 394.9L131 387.9Z" fill="#161616" stroke="#161616"></path><path d="M517 130.7L439 49.7L413 88.7Z" fill="#171717" stroke="#171717"></path><path d="M284 0L240 68.7L323 130.4Z" fill="#161515" stroke="#161515"></path><path d="M561 600L594 526.3L468 562.3Z" fill="#161616" stroke="#161616"></path><path d="M563 466.6L680 460.3L625 370.6Z" fill="#161515" stroke="#161515"></path><path d="M341 0L323 130.4L413 88.7Z" fill="#171717" stroke="#171717"></path><path d="M594 526.3L603 521.3L563 466.6Z" fill="#171717" stroke="#171717"></path><path d="M126 600L210 600L164 480.3Z" fill="#171717" stroke="#171717"></path><path d="M164 480.3L210 600L253 519.3Z" fill="#171717" stroke="#171717"></path><path d="M86 394.9L104 503.3L153 420.6Z" fill="#151414" stroke="#151414"></path><path d="M63 146.4L188 271.1L181 132.4Z" fill="#151414" stroke="#151414"></path><path d="M63 146.4L54 264.1L188 271.1Z" fill="#151515" stroke="#151515"></path><path d="M86 394.9L0 507.3L104 503.3Z" fill="#171717" stroke="#171717"></path><path d="M459 600L561 600L468 562.3Z" fill="#171717" stroke="#171717"></path><path d="M594 526.3L633 600L603 521.3Z" fill="#161515" stroke="#161515"></path><path d="M679 472.6L680 460.3L563 466.6Z" fill="#151515" stroke="#151515"></path><path d="M715 308.9L689 208.1L594 301.9Z" fill="#171717" stroke="#171717"></path><path d="M679 472.6L563 466.6L603 521.3Z" fill="#151515" stroke="#151515"></path><path d="M439 49.7L341 0L413 88.7Z" fill="#151515" stroke="#151515"></path><path d="M633 600L679 472.6L603 521.3Z" fill="#171717" stroke="#171717"></path><path d="M715 308.9L594 301.9L625 370.6Z" fill="#151414" stroke="#151414"></path><path d="M562 215.1L625 86.7L517 130.7Z" fill="#171717" stroke="#171717"></path><path d="M517 130.7L508 0L439 49.7Z" fill="#161616" stroke="#161616"></path><path d="M341 0L284 0L323 130.4Z" fill="#151515" stroke="#151515"></path><path d="M81 115.7L63 146.4L181 132.4Z" fill="#161616" stroke="#161616"></path><path d="M757 394.9L715 308.9L625 370.6Z" fill="#161616" stroke="#161616"></path><path d="M757 394.9L625 370.6L680 460.3Z" fill="#171717" stroke="#171717"></path><path d="M661 118.4L625 86.7L562 215.1Z" fill="#161616" stroke="#161616"></path><path d="M439 49.7L508 0L341 0Z" fill="#161616" stroke="#161616"></path><path d="M81 115.7L181 132.4L129 48.7Z" fill="#161616" stroke="#161616"></path><path d="M104 503.3L126 600L164 480.3Z" fill="#161616" stroke="#161616"></path><path d="M549 0L508 0L517 130.7Z" fill="#161616" stroke="#161616"></path><path d="M129 48.7L181 132.4L240 68.7Z" fill="#151414" stroke="#151414"></path><path d="M715 308.9L716 227.1L689 208.1Z" fill="#171717" stroke="#171717"></path><path d="M689 208.1L661 118.4L562 215.1Z" fill="#161616" stroke="#161616"></path><path d="M711 133.7L661 118.4L689 208.1Z" fill="#161616" stroke="#161616"></path><path d="M54 264.1L0 347.9L96 387.6Z" fill="#161616" stroke="#161616"></path><path d="M104 503.3L0 600L126 600Z" fill="#161515" stroke="#161515"></path><path d="M0 274.1L0 347.9L54 264.1Z" fill="#171717" stroke="#171717"></path><path d="M284 0L209 0L240 68.7Z" fill="#151414" stroke="#151414"></path><path d="M209 0L129 48.7L240 68.7Z" fill="#161616" stroke="#161616"></path><path d="M561 600L633 600L594 526.3Z" fill="#161616" stroke="#161616"></path><path d="M0 135.7L0 274.1L54 264.1Z" fill="#151414" stroke="#151414"></path><path d="M0 347.9L0 402.6L86 394.9Z" fill="#151414" stroke="#151414"></path><path d="M654 0L549 0L625 86.7Z" fill="#151414" stroke="#151414"></path><path d="M625 86.7L549 0L517 130.7Z" fill="#171717" stroke="#171717"></path><path d="M757 458.3L680 460.3L679 472.6Z" fill="#171717" stroke="#171717"></path><path d="M757 458.3L757 394.9L680 460.3Z" fill="#171717" stroke="#171717"></path><path d="M715 308.9L755 202.4L716 227.1Z" fill="#161616" stroke="#161616"></path><path d="M755 202.4L689 208.1L716 227.1Z" fill="#151515" stroke="#151515"></path><path d="M755 202.4L711 133.7L689 208.1Z" fill="#161616" stroke="#161616"></path><path d="M660 0L654 0L625 86.7Z" fill="#161515" stroke="#161515"></path><path d="M754 600L757 458.3L679 472.6Z" fill="#161616" stroke="#161616"></path><path d="M853 241.1L755 202.4L715 308.9Z" fill="#161616" stroke="#161616"></path><path d="M0 402.6L0 507.3L86 394.9Z" fill="#151414" stroke="#151414"></path><path d="M0 115.4L0 135.7L63 146.4Z" fill="#161616" stroke="#161616"></path><path d="M63 146.4L0 135.7L54 264.1Z" fill="#151414" stroke="#151414"></path><path d="M0 115.4L63 146.4L81 115.7Z" fill="#171717" stroke="#171717"></path><path d="M70 0L0 115.4L81 115.7Z" fill="#151515" stroke="#151515"></path><path d="M70 0L81 115.7L129 48.7Z" fill="#171717" stroke="#171717"></path><path d="M660 0L661 118.4L711 133.7Z" fill="#161616" stroke="#161616"></path><path d="M660 0L625 86.7L661 118.4Z" fill="#171717" stroke="#171717"></path><path d="M808 120.7L770 145.4L853 241.1Z" fill="#151414" stroke="#151414"></path><path d="M755 202.4L770 145.4L711 133.7Z" fill="#161515" stroke="#161515"></path><path d="M770 145.4L755 202.4L853 241.1Z" fill="#161515" stroke="#161515"></path><path d="M808 120.7L660 0L711 133.7Z" fill="#151414" stroke="#151414"></path><path d="M209 0L70 0L129 48.7Z" fill="#171717" stroke="#171717"></path><path d="M0 507.3L0 600L104 503.3Z" fill="#161515" stroke="#161515"></path><path d="M633 600L754 600L679 472.6Z" fill="#171717" stroke="#171717"></path><path d="M853 241.1L715 308.9L757 394.9Z" fill="#161616" stroke="#161616"></path><path d="M853 241.1L757 394.9L900 339.9Z" fill="#171717" stroke="#171717"></path><path d="M770 145.4L808 120.7L711 133.7Z" fill="#161616" stroke="#161616"></path><path d="M866 432.6L757 394.9L757 458.3Z" fill="#151414" stroke="#151414"></path><path d="M70 0L0 0L0 115.4Z" fill="#161515" stroke="#161515"></path><path d="M900 473.6L866 432.6L900 480.3Z" fill="#161515" stroke="#161515"></path><path d="M866 432.6L900 339.9L757 394.9Z" fill="#161515" stroke="#161515"></path><path d="M853 241.1L900 120.4L808 120.7Z" fill="#151414" stroke="#151414"></path><path d="M900 339.9L900 239.1L853 241.1Z" fill="#171717" stroke="#171717"></path><path d="M866 432.6L900 473.6L900 339.9Z" fill="#161616" stroke="#161616"></path><path d="M754 600L846 600L757 458.3Z" fill="#161616" stroke="#161616"></path><path d="M900 480.3L866 432.6L757 458.3Z" fill="#171717" stroke="#171717"></path><path d="M846 600L900 480.3L757 458.3Z" fill="#151414" stroke="#151414"></path><path d="M900 239.1L900 120.4L853 241.1Z" fill="#161616" stroke="#161616"></path><path d="M808 120.7L844 0L660 0Z" fill="#151515" stroke="#151515"></path><path d="M900 97.7L844 0L808 120.7Z" fill="#161616" stroke="#161616"></path><path d="M900 120.4L900 97.7L808 120.7Z" fill="#151414" stroke="#151414"></path><path d="M846 600L900 600L900 480.3Z" fill="#161616" stroke="#161616"></path><path d="M900 97.7L900 0L844 0Z" fill="#171717" stroke="#171717"></path></g></svg>